<?xml version="1.0" encoding="UTF-8"?>
<svg xmlns="http://www.w3.org/2000/svg" xmlns:xlink="http://www.w3.org/1999/xlink" viewBox="0 0 24 24" width="24px" height="24px">
<g id="surface226261053">
<path style=" stroke:none;fill-rule:nonzero;fill:rgb(80.392158%,80.392158%,81.176472%);fill-opacity:1;" d="M 10.5 2.625 C 9.464844 2.625 8.625 3.464844 8.625 4.5 L 8.625 5.625 L 4.875 5.625 C 4.460938 5.625 4.125 5.960938 4.125 6.375 C 4.125 6.789062 4.460938 7.125 4.875 7.125 L 5.667969 7.125 L 6.296875 18.5 C 6.363281 19.691406 7.351562 20.625 8.542969 20.625 L 15.457031 20.625 C 16.648438 20.625 17.636719 19.691406 17.703125 18.5 L 18.332031 7.125 L 19.125 7.125 C 19.539062 7.125 19.875 6.789062 19.875 6.375 C 19.875 5.960938 19.539062 5.625 19.125 5.625 L 15.375 5.625 L 15.375 4.5 C 15.375 3.464844 14.535156 2.625 13.5 2.625 Z M 10.5 4.125 L 13.5 4.125 C 13.707031 4.125 13.875 4.292969 13.875 4.5 L 13.875 5.625 L 10.125 5.625 L 10.125 4.5 C 10.125 4.292969 10.292969 4.125 10.5 4.125 Z M 7.167969 7.125 L 16.832031 7.125 L 16.203125 18.417969 C 16.183594 18.8125 15.855469 19.125 15.457031 19.125 L 8.542969 19.125 C 8.144531 19.125 7.816406 18.8125 7.796875 18.417969 Z M 12 8.71875 C 11.636719 8.71875 11.34375 9.011719 11.34375 9.375 L 11.34375 16.875 C 11.34375 17.238281 11.636719 17.53125 12 17.53125 C 12.363281 17.53125 12.65625 17.238281 12.65625 16.875 L 12.65625 9.375 C 12.65625 9.011719 12.363281 8.71875 12 8.71875 Z M 9.242188 8.71875 C 8.878906 8.730469 8.597656 9.035156 8.609375 9.398438 L 8.871094 16.929688 C 8.882812 17.285156 9.171875 17.5625 9.523438 17.5625 C 9.53125 17.5625 9.539062 17.5625 9.546875 17.5625 C 9.910156 17.550781 10.195312 17.246094 10.179688 16.882812 L 9.921875 9.351562 C 9.90625 8.992188 9.601562 8.710938 9.242188 8.71875 Z M 14.757812 8.71875 C 14.394531 8.710938 14.09375 8.992188 14.078125 9.351562 L 13.820312 16.882812 C 13.804688 17.246094 14.089844 17.550781 14.453125 17.5625 C 14.460938 17.5625 14.46875 17.5625 14.476562 17.5625 C 14.828125 17.5625 15.117188 17.285156 15.128906 16.929688 L 15.390625 9.398438 C 15.40625 9.035156 15.121094 8.730469 14.757812 8.71875 Z M 14.757812 8.71875 "/>
</g>
</svg>
